<svg aria-hidden="true" style="position:absolute;width:0;height:0;overflow:hidden" xmlns="http://www.w3.org/2000/svg">
    <defs>
        <symbol id="icon-right-side" viewBox="0 0 19 32">
            <path stroke-linejoin="round" stroke-linecap="round" stroke-width="4.8" d="M3.2 3.2 16 16 3.2 28.8"/>
        </symbol>
        <symbol id="icon-left-side" viewBox="0 0 19 32">
            <path stroke-linejoin="round" stroke-linecap="round" stroke-width="4.8" d="M16 28.8 3.2 16 16 3.2"/>
        </symbol>
        <symbol id="icon-youtube" viewBox="0 0 46 32">
            <path d="M35.93.44C33.8.32 29.46.2 22.86.2H22C15.64.2 11.41.32 9.3.56c-2.85.25-4.84 1-5.96 1.99-1 .87-1.75 2.49-2 4.6-.12 1.37-.24 4.23-.24 8.59v.62c0 4.1.12 6.97.37 8.34.37 2 1 3.48 2.24 4.36 1.24 1 3.36 1.61 6.35 1.86 2.11.13 6.47.25 13.06.25h.87c6.35 0 10.58-.12 12.7-.37 2.86-.25 4.85-1 5.97-2 1-.86 1.74-2.48 1.99-4.6.12-1.36.25-4.23.25-8.58V15c0-4.11-.12-6.97-.37-8.34-.38-2-1-3.49-2.24-4.36-1.25-1-3.36-1.62-6.35-1.87zm-4.85 15.31-13.7 8.21V7.54l13.7 8.21z"/>
        </symbol>
        <symbol id="icon-instagram" viewBox="0 0 32 32">
            <path d="M28.72 10.76a9.26 9.26 0 0 0-.6-3.15 6.55 6.55 0 0 0-3.74-3.74c-1-.37-2.04-.57-3.1-.6-1.38-.05-1.81-.07-5.28-.07s-3.92 0-5.28.08a9.41 9.41 0 0 0-3.1.6A6.54 6.54 0 0 0 3.88 7.6c-.38 1-.58 2.04-.6 3.1-.06 1.37-.08 1.8-.08 5.27s0 3.9.08 5.26c.02 1.06.22 2.11.6 3.1a6.55 6.55 0 0 0 3.74 3.74c.99.39 2.04.6 3.1.64 1.37.06 1.8.08 5.28.08s3.92 0 5.27-.08a9.36 9.36 0 0 0 3.11-.6 6.56 6.56 0 0 0 3.74-3.73c.38-1 .58-2.04.6-3.1.06-1.37.08-1.8.08-5.27 0-3.47 0-3.9-.08-5.27zM15.99 22.53a6.56 6.56 0 1 1-.01-13.13 6.56 6.56 0 0 1 .01 13.13zm6.83-11.83a1.53 1.53 0 1 1 0-3.06 1.53 1.53 0 0 1 0 3.06z"/><path d="M16 19.98a4 4 0 1 0 0-8.01 4 4 0 0 0 0 8z"/>
        </symbol>
        <symbol id="icon-facebook" viewBox="0 0 13 32">
            <path d="M11.33.1h1.34v5.04H11c-.68 0-1.34 0-1.68.33-.33.34-.33.67-.33 1.46v1.79h3.7v4.26h-3.7v18.48H3.26v-18.6H.24V8.61h3.02V7.15c0-2.46.34-4.25 1.01-5.04C5.28.66 7.3-.02 10.32-.02c.34.12.67.12 1 .12z"/>
        </symbol>

        <symbol id="icon-discount" viewBox="0 0 32 32">
            <path fill="#6d8434" style="fill:var(--color1, #6d8434)" d="M32 16a16 16 0 1 1-32 0 16 16 0 0 1 32 0z"/>
            <path fill="#fafafa" style="fill:var(--color2, #fafafa)" d="m26.95 20.86-.24.63-4.29-1.58.23-.63.36.13v-.01a1.22 1.22 0 0 1-.1-1.1c.3-.79 1.12-1.14 2.13-.77s1.4 1.18 1.11 1.96c-.17.48-.5.7-.8.77v.01l1.6.6zm-3.56-2.26c-.2.51.12.99.8 1.24s1.22.09 1.41-.43c.2-.55-.2-1.03-.8-1.25s-1.2-.11-1.41.44zM25.1 22.53c.1-.15.32-.23.5-.1s.18.37.07.52c-.12.16-.33.24-.51.1s-.18-.36-.07-.52zm-.26-.6-.4.55-2.63-1.93.4-.54 2.63 1.93zM21.83 23.3c-.56.28-1.15.59-1.64-.01-.4-.49-.24-1.13.38-1.63.81-.67 1.48-.58 1.94-.07l-.5.41c-.25-.25-.56-.38-1.1.06-.36.3-.36.6-.23.76.26.31.58.09 1.02-.13.48-.23 1.1-.6 1.56-.03.35.41.25 1.05-.38 1.57-.69.56-1.32.46-1.71.05l.5-.41c.2.16.46.29.87-.05.31-.25.38-.51.23-.69-.2-.26-.5-.04-.94.17zM18.35 25.16c.13.3.46.62 1 .44.63-.22.72-.84.52-1.42s-.64-1.03-1.27-.81c-.55.18-.62.63-.53.98l-.63.22c-.2-.74.17-1.45.98-1.72.93-.32 1.75.14 2.08 1.11s-.04 1.84-.96 2.16c-.8.27-1.5-.07-1.83-.74l.64-.22zM15.6 23.25c1.03.06 1.6.8 1.54 1.82s-.72 1.69-1.74 1.62c-1.03-.06-1.6-.8-1.54-1.82s.72-1.69 1.75-1.63zm-.03.55c-.64-.04-1 .44-1.04 1.11-.04.68.26 1.2.9 1.24s1-.44 1.04-1.12c.04-.67-.26-1.2-.9-1.24zM10.77 25.27l-.6-.29 1.43-2.94.6.3-.18.37v.01c.28-.15.7-.24 1.2 0 .55.27.82.8.5 1.47l-1 2.04-.6-.3.9-1.86c.2-.4.15-.73-.26-.93-.47-.23-.9-.1-1.12.35l-.87 1.79zM7.83 22.96c-.4-.46-.46-1.05.1-1.55l1.68-1.5.46.5-1.55 1.38c-.33.3-.41.62-.1.96.34.39.8.43 1.16.1l1.49-1.32.44.5-2.44 2.18-.44-.5.31-.28v-.01c-.31.04-.73-.04-1.1-.46zM6.45 19.38l.25.56 1.62-.73c.33-.15.3-.34.1-.72l.5-.23c.09.11.17.24.24.4.22.5.12.86-.51 1.14l-1.67.75.2.44-.5.22-.2-.43-.94.42-.28-.61.94-.43-.25-.56.5-.22zM4.5 12.65l.14-.66 4.47 1-.15.65-.37-.08v.01c.18.22.35.59.24 1.08-.18.82-.95 1.28-2 1.05s-1.55-.98-1.37-1.8c.11-.5.41-.76.7-.87v-.01l-1.67-.37zm3.82 1.77c.12-.54-.25-.97-.95-1.13-.72-.15-1.23.08-1.35.62-.12.57.33 1 .96 1.13s1.21-.05 1.34-.62zM6.1 10.75c-.09.16-.29.27-.5.16s-.21-.34-.12-.5c.1-.18.29-.28.5-.17s.22.33.12.5zm.33.55.32-.59 2.87 1.56-.32.6-2.87-1.57zM9.24 9.53c.51-.34 1.06-.73 1.63-.2.46.43.38 1.1-.16 1.67-.72.77-1.4.77-1.92.32l.44-.47c.28.21.6.3 1.08-.2.32-.34.28-.64.13-.78-.3-.28-.59-.02-1 .25-.44.3-1 .75-1.54.24-.4-.37-.39-1 .17-1.6.61-.65 1.25-.64 1.7-.28l-.45.48c-.22-.15-.5-.23-.85.15-.28.3-.31.56-.15.72.25.23.52-.02.92-.3z"/>
            <path fill="#fafafa" style="fill:var(--color2, #fafafa)" d="M12.4 7.25c-.18-.29-.55-.55-1.06-.3-.6.3-.59.93-.31 1.48s.77.93 1.37.63c.51-.26.52-.7.38-1.04l.6-.3c.3.7.02 1.45-.74 1.83-.87.44-1.76.1-2.22-.82s-.2-1.83.67-2.26c.76-.38 1.5-.15 1.9.48l-.6.3zM15.37 8.77c-1.02.07-1.7-.6-1.76-1.6s.49-1.78 1.5-1.85c1.03-.08 1.7.59 1.78 1.6s-.5 1.77-1.52 1.85zm-.04-.55c.64-.05.93-.58.88-1.25-.05-.67-.41-1.15-1.05-1.1s-.94.57-.89 1.24c.05.67.42 1.15 1.06 1.1zM19.92 6.1l.64.22-1.03 3.1-.64-.21.14-.4H19c-.24.18-.64.32-1.18.14-.57-.19-.92-.67-.69-1.38l.71-2.15.65.22-.65 1.96c-.14.42-.05.74.38.89.5.16.91-.03 1.06-.5l.63-1.89zM23.14 8c.47.4.6.98.11 1.55l-1.47 1.71-.52-.44 1.35-1.57c.29-.33.33-.67-.02-.97-.4-.33-.85-.31-1.17.06l-1.3 1.5-.5-.43 2.13-2.48.5.43-.27.32.01.01c.3-.08.73-.05 1.15.31zM24.98 11.34l-.32-.52-1.5.94c-.32.2-.26.37-.01.73l-.47.29c-.1-.1-.2-.21-.29-.36-.28-.46-.23-.84.36-1.2l1.55-.97-.25-.4.46-.3.26.4.87-.54.36.57-.88.55.33.52-.47.3zM17.56 14.76c-2.8.62-3.46 2.54-4.1 4.15l.58.2.3-.72c.15.06.3.1.42.1 3.42 0 4.35-5.3 4.35-5.3-.3.63-2.49.7-4.04 1.02s-2.18 1.63-2.18 2.26.54 1.16.54 1.16c1.02-2.88 4.13-2.88 4.13-2.88z"/>
        </symbol>
        
        <symbol id="icon-organic-food" viewBox="0 0 32 32">
            <path fill="#fdc152" style="fill:var(--color3, #fdc152)" d="M32 16a16 16 0 1 1-32 0 16 16 0 0 1 32 0z"/>
            <path fill="#010101" style="fill:var(--color4, #010101)" d="M25.17 17.18c.1-.81.73-1.23 1.54-1.13s1.31.67 1.2 1.48c-.1.81-.72 1.23-1.53 1.13s-1.31-.67-1.2-1.48zm.44.06c-.06.5.3.82.84.89.53.07.96-.15 1.03-.65s-.3-.83-.84-.9c-.53-.06-.96.15-1.03.66zM27.14 20.52l-.1.21-.47-.17c.25-.46.06-.97-.46-1.16l-1.26-.44.18-.51 2.46.87-.18.5-.46-.16v.01c.26.24.4.52.29.85zM25.82 22.82l-.29.46-2.07-1.29c-.63-.4-.68-.96-.29-1.59.4-.64.96-.78 1.36-.6l-.29.46c-.22-.08-.46-.01-.69.35-.24.38-.18.69.22.93l.27.17a.92.92 0 0 1 .09-.89c.35-.55 1-.73 1.7-.3.7.44.82 1.1.47 1.65a.94.94 0 0 1-.74.48l.26.17zm-1.37-1.68c-.23.37-.12.75.35 1.04s.85.22 1.08-.15c.24-.4.07-.8-.34-1.05-.41-.25-.84-.24-1.09.16zM23.46 24.43c.13.13.31.16.57-.09.31-.3.34-.5.12-.76l.38-.36c.33.38.36.89-.2 1.43-.43.4-.89.54-1.37.03l-.86-.9c-.12-.13-.22-.18-.36-.02l-.17-.18a.8.8 0 0 1 .18-.26c.21-.2.38-.21.6-.06v-.01c-.04-.28.06-.6.36-.88.38-.37.83-.37 1.14-.05.39.42.2.84-.18 1.38-.24.34-.38.54-.21.73zm-.55-1.67c-.32.3-.39.68-.1.99l.28.28c.02-.1.13-.3.27-.5.26-.38.31-.6.13-.8-.17-.17-.36-.17-.57.03zM21.58 26.62c-.42.23-.9.17-1.18-.35l-.87-1.59.47-.26.8 1.45c.17.31.4.44.73.26.36-.2.48-.55.29-.89l-.77-1.4.48-.25 1.25 2.3-.47.25-.16-.3-.01.01c-.02.25-.16.56-.56.77zM19.93 27.72c.14-.05.32 0 .38.18s-.06.31-.2.36c-.15.05-.32 0-.38-.17s.05-.32.2-.37zm.12-.5-.51.16-.81-2.49.51-.16.8 2.49zM16.83 26.93c.05.27.26.56.72.5.52-.06.69-.54.63-1.02s-.34-.91-.87-.84c-.46.06-.58.4-.57.68l-.53.07c-.04-.6.37-1.1 1.04-1.19.78-.1 1.36.4 1.46 1.2s-.33 1.45-1.1 1.54c-.67.09-1.17-.29-1.31-.87l.53-.07zM11.64 27.73c.33.12.47.13.56-.16l.08-.27-.46-.15.13-.42.46.15.65-2.08.52.16-.65 2.08.36.11-.13.42-.36-.11-.1.32c-.16.52-.45.64-.86.51a1.86 1.86 0 0 1-.33-.14l.13-.42zM11.6 24.07c.72.4.88 1.13.49 1.85s-1.1.97-1.82.57-.88-1.13-.49-1.84 1.1-.98 1.82-.58zm-.2.38c-.46-.24-.89-.02-1.15.45-.26.48-.22.96.23 1.2s.88.03 1.14-.44c.26-.48.22-.96-.23-1.2zM9.7 22.67c.6.57.56 1.32 0 1.91s-1.31.66-1.9.1c-.6-.57-.57-1.32 0-1.91s1.3-.66 1.9-.1zm-.3.32c-.37-.35-.85-.24-1.22.15-.37.4-.45.87-.08 1.22s.84.25 1.21-.15c.37-.39.46-.86.09-1.22z"/>
            <path fill="#010101" style="fill:var(--color4, #010101)" d="m4.68 22.23-.27-.46 3.13-1.89.28.46-.26.16c.23.03.54.15.74.5.35.57.16 1.27-.58 1.71s-1.44.29-1.79-.29a.93.93 0 0 1-.07-.88v-.01l-1.18.7zm3.2-1.09c-.23-.37-.68-.42-1.17-.12-.5.3-.67.72-.45 1.1.25.4.74.4 1.18.13s.68-.7.44-1.1zM6.85 16.38c.03.81-.52 1.33-1.33 1.36s-1.4-.44-1.43-1.26.51-1.34 1.33-1.37c.81-.03 1.4.45 1.43 1.26zm-.44.01c-.02-.51-.44-.76-.97-.74-.54.02-.93.3-.91.81s.43.77.97.75c.53-.03.93-.3.9-.82zM4.37 13.36c.01-.1.03-.15.06-.23l.5.09v.01c-.18.5.09.96.64 1.06l1.31.24-.1.53-2.57-.47.1-.52.48.08c-.3-.2-.48-.45-.42-.79zM5.29 10.88l.2-.5 2.25.94c.7.29.83.84.55 1.52-.29.7-.81.93-1.24.81l.2-.5c.24.04.47-.06.63-.45.18-.42.08-.7-.36-.89l-.3-.12c.13.21.22.5.06.89-.25.6-.86.89-1.62.57-.77-.32-1-.94-.75-1.55a.94.94 0 0 1 .66-.59l-.28-.12zm1.62 1.44c.17-.4 0-.76-.5-.97s-.89-.08-1.05.32c-.18.44.05.8.5.98.45.19.87.1 1.05-.33zM7.36 8.91c-.16-.11-.34-.11-.55.18-.26.34-.25.54 0 .77l-.32.41c-.38-.32-.5-.82-.02-1.44.35-.46.79-.67 1.34-.25l.99.75c.15.12.25.14.36-.04l.2.16a.82.82 0 0 1-.14.28c-.18.23-.34.27-.57.16.08.28.02.6-.22.93-.33.42-.77.5-1.12.23-.45-.34-.34-.8-.04-1.39.18-.37.29-.6.09-.75zm.8 1.56c.27-.35.28-.73-.06-.99l-.31-.24c0 .1-.09.31-.2.54-.19.42-.2.65 0 .8.2.16.4.12.57-.11zM8.82 6.46c.38-.3.86-.31 1.23.16l1.11 1.42-.42.33-1.02-1.3c-.22-.27-.48-.36-.77-.13-.32.25-.38.61-.14.92l.98 1.25-.42.34-1.61-2.06.42-.33.2.26h.02c-.02-.25.07-.58.42-.86zM10.3 5.09c-.14.07-.32.05-.4-.12s0-.32.13-.39c.14-.07.32-.05.4.11s0 .33-.14.4zm-.04.51.48-.24 1.2 2.32-.48.25-1.2-2.33zM13.48 5.35c-.1-.25-.35-.5-.79-.38-.5.16-.59.65-.45 1.12s.48.84 1 .69c.43-.13.5-.49.44-.77l.52-.15c.13.59-.19 1.15-.84 1.34-.75.23-1.4-.17-1.63-.95s.08-1.47.83-1.7c.65-.2 1.2.1 1.44.65l-.52.15zM18.45 3.72c-.34-.06-.48-.05-.52.25l-.04.28.48.07-.06.43-.48-.06-.3 2.15-.54-.07.3-2.16-.37-.05.06-.44.37.06.05-.33c.07-.55.34-.71.76-.65l.35.08-.06.44zM19.1 7.32c-.78-.27-1.06-.97-.78-1.74s.93-1.14 1.7-.87c.77.28 1.05.98.78 1.75s-.93 1.13-1.7.86zm.14-.41c.49.17.87-.13 1.05-.63.18-.51.06-.98-.42-1.15s-.87.12-1.05.63c-.18.5-.06.98.42 1.15z"/>
            <path fill="#010101" style="fill:var(--color4, #010101)" d="M21.17 8.36c-.68-.46-.77-1.2-.31-1.88s1.18-.87 1.86-.4c.68.45.77 1.2.32 1.88s-1.2.86-1.87.4zm.25-.36c.42.28.87.1 1.17-.35.3-.45.3-.93-.11-1.21s-.87-.1-1.18.34c-.3.45-.3.93.12 1.22zM26.25 8.03l.34.41-2.8 2.36-.34-.4.23-.2v-.01a.98.98 0 0 1-.81-.36c-.43-.52-.35-1.23.3-1.79s1.38-.51 1.81 0c.26.3.28.63.22.86l1.05-.87zm-2.98 1.58c.28.34.73.31 1.18-.06.44-.38.54-.82.26-1.16-.3-.35-.8-.27-1.19.06s-.56.8-.25 1.16zM17.6 14.72c-2.88.64-3.55 2.61-4.22 4.27l.6.21.31-.74c.16.06.32.1.43.1 3.52 0 4.48-5.44 4.48-5.44-.32.64-2.56.72-4.16 1.04s-2.24 1.68-2.24 2.32c0 .64.56 1.2.56 1.2 1.04-2.96 4.24-2.96 4.24-2.96z"/>
        </symbol>

        <symbol id="icon-check" viewBox="0 0 32 32">
            <path stroke-linejoin="round" fill="none" stroke-linecap="round" stroke-width="4.57" d="M29.71 6.86 10.86 25.7l-8.57-8.57"/>
        </symbol>

        <symbol id="icon-down-btn" viewBox="0 0 32 32">
            <path stroke-linejoin="round" stroke-linecap="round" stroke-width="5.33" d="M2.67 9.33 16 22.67 29.33 9.33"/>
        </symbol>
        <symbol id="icon-search" viewBox="0 0 32 32">
            <path d="M21.83 19.33h-1.31l-.47-.45a10.78 10.78 0 0 0 .79-13.07 10.83 10.83 0 1 0-1.96 14.24l.45.47v1.31l8.34 8.32 2.48-2.48-8.32-8.34zm-10 0a7.49 7.49 0 1 1 0-15 7.49 7.49 0 1 1 0 15z"/>
        </symbol>
        <symbol id="icon-logo-food" viewBox="0 0 32 32">
            <path d="M17.49 3.62a5.36 5.36 0 0 0-1.82-1.7c-2.01-1.16-4.6-.95-7 .39A14.36 14.36 0 0 0 1.34 15 14.62 14.62 0 0 0 16 29.67a14.62 14.62 0 0 0 14.66-14.78 16.64 16.64 0 0 0-2.7-8.27c-1.62-2.51-4.12-4.8-7.23-4.78-1.52 0-2.55.84-3.24 1.79zm8.87 5.53a6.33 6.33 0 0 0-1.68-.04l-1.55-2.6-2.3 1.36 1.2 2c-.5.23-.98.5-1.42.83l-.03-.08a7.03 7.03 0 0 0-1.96-2.85v-.02c.1-.43.25-.99.47-1.53.5-1.22 1.07-1.72 1.65-1.72h.01c1.72-.02 3.52 1.3 4.98 3.56.23.36.44.72.63 1.09zm-8.21 4c-.44 0-.9.06-1.34.15a5.01 5.01 0 0 0-1.41-1.52 4.3 4.3 0 0 0-4.06-.53l-.43-.24 4.3-4.22-1.86-1.9-5.11 5a7.28 7.28 0 0 0-3-.3 11.6 11.6 0 0 1 4.74-4.96c1.82-1.02 3.39-.96 4.36-.4.94.53 1.71 1.75 1.52 3.91l-.06.68.5.44c1.1.97 1.55 1.6 1.75 2.2.14.42.18.93.1 1.69zm-3.75 1.34a7.8 7.8 0 0 0-2.35 3.73L8.1 13.87l-1.98 1.8 5.46 5.98c-.01 1.59.2 3.22.49 4.69A11.93 11.93 0 0 1 4 15c0-1.39.38-2.14.84-2.47.43-.32 1.37-.57 3.3.14.69.25 1.5.65 2.41 1.22l.67.42.7-.39c.82-.47 1.46-.3 1.94.04.22.15.4.34.54.53zm2.35 12.49 9.72-10.72-1.97-1.8-3.9 4.32v-1.36l-2.67-.02-.03 4.34-3.3 3.65c-.26-1.36-.4-2.83-.36-4.2.08-2.34 1.02-4.26 2.4-5.02a4.08 4.08 0 0 1 2.39-.3l1.18.2.33-1.15c.17-.6.62-1.25 1.33-1.83.72-.58 1.55-1 2.45-1.22 1.06-.26 1.97-.13 2.57.29.53.36 1.06 1.1 1.1 2.6V15a11.95 11.95 0 0 1-11.24 11.98z"/>
        </symbol>
        <symbol id="icon-basket" viewBox="0 0 30 32">
            <path d="M3.2 1.7a1.7 1.7 0 1 0 0 3.38h2.07l.52 2.07.01.07 2.3 9.2-1.51 1.51a3.39 3.39 0 0 0 2.4 5.79h14.54a1.7 1.7 0 1 0 0-3.4H8.98l1.7-1.68h11.16a1.7 1.7 0 0 0 1.51-.94l5.08-10.17a1.7 1.7 0 0 0-1.51-2.45H8.76l-.53-2.1A1.7 1.7 0 0 0 6.6 1.69H3.2zm22.03 26.25a2.54 2.54 0 1 1-5.1 0 2.54 2.54 0 0 1 5.1 0zM9.13 30.5a2.54 2.54 0 1 0 0-5.08 2.54 2.54 0 0 0 0 5.08z"/>
        </symbol>
        <symbol id="icon-close" viewBox="0 0 32 32">
            <path d="M29.5 5.64 26.36 2.5 16 12.86 5.64 2.5 2.5 5.64 12.86 16 2.5 26.36l3.14 3.14L16 19.14 26.36 29.5l3.14-3.14L19.14 16 29.5 5.64z"/>
        </symbol>

<symbol id="icon-caret-small-right" viewBox="0 0 33 32">
<path fill="none" stroke="#a3a3a3" style="stroke: var(--color1, #a3a3a3)" stroke-linejoin="round" stroke-linecap="round" stroke-miterlimit="4" stroke-width="2" d="M14 10.667l5.333 5.333-5.333 5.333"></path>
</symbol>

<symbol id="icon-caret-small-left" viewBox="0 0 33 32">
<path fill="none" stroke="#a3a3a3" style="stroke: var(--color1, #a3a3a3)" stroke-linejoin="round" stroke-linecap="round" stroke-miterlimit="4" stroke-width="2" d="M19.333 21.333l-5.333-5.333 5.333-5.333"></path>
</symbol>

<symbol id="icon-baseline-search" viewBox="0 0 32 32">
<path d="M20.667 18.667h-1.054l-0.373-0.36c1.3-1.502 2.093-3.475 2.093-5.633 0-0.002 0-0.005 0-0.007v0c0-0 0-0.001 0-0.002 0-4.787-3.88-8.667-8.667-8.667s-8.667 3.88-8.667 8.667c0 4.787 3.88 8.667 8.667 8.667 0.001 0 0.001 0 0.002 0h-0c0.002 0 0.004 0 0.006 0 2.158 0 4.131-0.792 5.644-2.102l-0.011 0.009 0.36 0.373v1.054l6.666 6.653 1.987-1.987-6.653-6.666zM12.667 18.667c-0.002 0-0.005 0-0.008 0-3.309 0-5.992-2.683-5.992-5.992 0-0.003 0-0.006 0-0.008v0c0-0.002 0-0.005 0-0.008 0-3.309 2.683-5.992 5.992-5.992 0.003 0 0.006 0 0.008 0h-0c0.002 0 0.005 0 0.008 0 3.309 0 5.992 2.683 5.992 5.992 0 0.003 0 0.006 0 0.008v-0c0 0.002 0 0.005 0 0.008 0 3.309-2.683 5.992-5.992 5.992-0.003 0-0.006 0-0.008 0h0z"></path>
</symbol>

<symbol id="icon-chevron-down" viewBox="0 0 32 32">
<path stroke-linejoin="round" stroke-linecap="round" stroke-miterlimit="4" stroke-width="3.2" d="M8 12l8 8 8-8"></path>
</symbol>

        <symbol id="icon-shopping-cart" viewBox="0 0 32 32">
<path d="M4.8 1.6c-0.424 0-0.831 0.169-1.131 0.469s-0.469 0.707-0.469 1.131c0 0.424 0.169 0.831 0.469 1.131s0.707 0.469 1.131 0.469h1.952l0.488 1.955c0.005 0.023 0.010 0.045 0.016 0.067l2.173 8.688-1.429 1.427c-2.016 2.016-0.589 5.462 2.262 5.462h13.737c0.424 0 0.831-0.169 1.131-0.469s0.469-0.707 0.469-1.131-0.169-0.831-0.469-1.131c-0.3-0.3-0.707-0.469-1.131-0.469h-13.738l1.6-1.6h10.537c0.297-0 0.588-0.083 0.841-0.239s0.457-0.38 0.59-0.646l4.8-9.6c0.122-0.244 0.18-0.515 0.167-0.787s-0.094-0.537-0.237-0.769c-0.143-0.232-0.343-0.423-0.581-0.556s-0.506-0.203-0.779-0.203h-17.152l-0.496-1.989c-0.087-0.346-0.286-0.653-0.568-0.873s-0.628-0.339-0.984-0.339h-3.2zM25.6 26.4c0 0.637-0.253 1.247-0.703 1.697s-1.060 0.703-1.697 0.703c-0.636 0-1.247-0.253-1.697-0.703s-0.703-1.060-0.703-1.697c0-0.636 0.253-1.247 0.703-1.697s1.060-0.703 1.697-0.703c0.637 0 1.247 0.253 1.697 0.703s0.703 1.061 0.703 1.697zM10.4 28.8c0.636 0 1.247-0.253 1.697-0.703s0.703-1.060 0.703-1.697c0-0.636-0.253-1.247-0.703-1.697s-1.061-0.703-1.697-0.703-1.247 0.253-1.697 0.703c-0.45 0.45-0.703 1.061-0.703 1.697s0.253 1.247 0.703 1.697 1.061 0.703 1.697 0.703z"></path>
</symbol>

        
    </defs>
</svg>